<?xml version="1.0" encoding="utf-8"?>
<!-- Generator: Adobe Illustrator 19.0.0, SVG Export Plug-In . SVG Version: 6.00 Build 0)  -->
<svg version="1.1" id="Layer_1" xmlns="http://www.w3.org/2000/svg" xmlns:xlink="http://www.w3.org/1999/xlink" x="0px" y="0px"
	 viewBox="19 357.3 649.6 78.7" style="enable-background:new 19 357.3 649.6 78.7;" xml:space="preserve">
<style type="text/css">
	.st0{fill:#FFFFFF;}
</style>
<g>
	<g>
		<path class="st0" d="M53.1,421.7c0,0,8.9-0.1,11.1-0.6c0,0-5.6,2.8-10.9,3.6l-2.3-1.2L53.1,421.7z"/>
		<path class="st0" d="M40.2,420.3c-2.8,1-10.1,1-10.1,1c7.3,2.5,13.5,2.6,13.5,2.6c10.9,7.5,27.1,5.5,27.1,5.5v-0.3
			c-1.8,0.3-5.4-0.4-5.4-0.4c-2.8-0.2-5.2-1.2-5.2-1.2h-0.9l-0.8-0.2l-1.1-0.4l-3.3-1.3l-4-2.5l1.7-1.5H52l1.2-0.9l0.5-0.1l1.2-1
			c0,0,0.6-0.9,1.8-1.3c3-2,7.8-6.7,7.8-6.7h-0.4c-2.6,2-8,4.4-8,4.4l-0.2,0.7l-0.5-0.4c-1.5,0.9-7.8,2.3-7.8,2.3l-0.5,0.4
			c-1.7,0.2-3.3-0.1-3.3-0.1c-7.8-4.8-11.5-18.8-11.5-18.8s0.9,7,2.1,9C35,412.7,40.2,420.3,40.2,420.3z"/>
		<path class="st0" d="M38.4,419.4l-2-2.3l-4.1-1.1c0,0,2.4,2.4,4.2,3.4C36.5,419.4,38.4,419.4,38.4,419.4z"/>
		<path class="st0" d="M44.5,417.4l-1.7-1.4c0,0,2.1-8.1,3.5-11.7c0,6.3,0,7.4,0,7.4L46,412l0.4,0.6l0.3,3.4L44.5,417.4z"/>
		<path class="st0" d="M44.3,425.5l2.6,1.6c0,0,1.3,3.8,1.6,4.6c-1.7-2-4.9-5.6-4.9-5.6L44.3,425.5z"/>
		<path class="st0" d="M45.4,382.3c0,0-1.3,2.4-2.4,3.4c-2.3,3.9-4.6,9.1-5.4,14.1c-0.7-0.9,1.6-9.7,4.5-14.4
			c-1.5-1.2-3.9,0.3-4.8,1.2c-1.9,1-4.3,3.6-5.5,5.7c-1.2,2-3,7.6-3,7.6v-1c0,0,2.5-12.3,12.8-16.5c0.8-2.3,3-5.8,3-5.8
			s-3.5,0.4-4,0.8c-0.7-1.5-0.9-2.5-0.9-2.5l1.2-1.4l-2.9,0.3l-1.4-1.4l1.8-1.7l-2.5,1.7c0,0-4.7-1.9-11.8-2.3
			c4.1-2.3,10.5-3.4,24.1-1.5c1.6,1.8,3,2.3,3,2.3v0.3c0,0,5.3,0,6.9,1c1.6,1,1.5,2.6,1.5,2.6s0.6,0.5,0.5,1.7
			c0.8,1.1,0.8,1.1,0.8,1.1v0.2l-1.8-0.8c0,0-1.6,0-3.5-0.5c-2.1,1.2-2.4,1.6-2.4,1.6S48.1,381.4,45.4,382.3z"/>
		<path class="st0" d="M37,375.3h1.2l0.4,2c0,0-5.7,5.7-7,11.5C31.6,382.7,35.9,377.1,37,375.3z"/>
		<path class="st0" d="M52.9,370c0,0-2.1-1.9-3.6-1.9c-0.2-1.7-2.4-3-7.5-4.3c3.4-0.8,9.8,1,13.8,3.7C55,370,54.8,370,52.9,370z"/>
		<path class="st0" d="M54,363.6c0,0,13.8-5,26.7,0.9c-1.3,0.2-13.6-2.2-23,1C55.4,364.3,54,363.6,54,363.6z"/>
		<path class="st0" d="M78.5,401.2c0,0-2.4,0.1-4.4,0.7c-1-0.4-1-0.4-1-0.4v0.8c0,0-4,0.3-6.5,5.5c-2,0.6-3.8,1.1-3.8,1.1
			s-0.3-0.9-1.8-1.3c0,0,0.3-0.5,0.6-0.5c-1.2-0.5-2.3-2.2-2.3-2.2s1.4,1,3.3,0.9c-1-0.6-1.5-1.7-1.5-1.7s1.6,0.6,2.6,0.7
			c-0.5-0.6-0.7-1.2-0.7-1.2s1.6,0.5,2.1,0.3c0.6-0.4,0.9-0.5,0.9-0.5l0.4,0.2l0.1-0.5c0,0,1.6-0.7,2-2c-0.1-4.6-0.2-6.5,1-8.6
			c-1.5-0.6-2.2-1.1-2.2-1.1l-0.4-0.9c0,0-0.8-0.4-1.8-0.5c0-0.6,0-0.6,0-0.6l-0.4,0.4l-1.6-0.2l-0.4-0.2l-0.5,0.2
			c0,0-2-0.2-2.8,0.1c-0.5,0.5-0.7,0.7-0.7,0.7s-1.4,0.7-1.4,1.1s0.2,1.7,0.2,1.7s-0.7-0.1-1.2-0.7c-0.7,1-0.4,2.1-0.4,2.1
			s-1.3-0.5-1.8-1.5c-0.1,1.9,1.6,4,2.7,4.7c-1.4,0.6-4.6-2.4-5.3-3.8c-0.9-0.1-1.5,0.5-1.5,0.5s0-1.7-1.3-3.3
			c-1.3-1.6-1.7-3.4-1.7-3.4s0.9,0.1,1.7-0.3c0.8-0.4,1.7-0.3,2.6-0.3c0.9,0.1,4.2-1.8,4.2-1.8H56c0,0,2.7-1.5,3.6-1.6
			c0.9,0,5.1,0.3,5.1,0.3l1.6-2.6c0,0-2.6,0.8-3.5,2.2c-1.6-0.1-1.8-0.1-1.8-0.1s0.4-1.8,1.3-2.6c0.9-0.9,3.8-3.6,5.2-4.1
			c1.4-0.5,2.6-1.1,3.5-1.5s2.8-1,5.6-1.8c1.5-0.4,3.3-2.9,4.1-3.6c0.8-0.8,4.2-5.3,5.3-7.3c2.2,4.4,3.3,7.1,3.1,8
			c-0.5,1.3-0.5,1.9-0.5,1.9l0.3,0.6l0.2,0.1c0,0,2.6,1.4,3,1.8c0.4,0.3,1,1,1,1l0.6,0.1l2.3,1.9l0.5-0.1l3.9,3.6l-0.2,0.7
			c0,0,1.4,1.3,1.6,1.9c-0.1,0.5,0,0.7,0,0.7l0.7,0.5l0.2,0.9l0.6,0.6v0.8c0,0,1.2,2.1,1.2,3.7c-1.8-2.6-4-5.8-6.2-5.2
			c-0.3,1.1-0.3,1.1-0.3,1.1l-1.1,0.5c0,0,2.8,1.6,4.6,4.7c-0.1,0.3-0.1,0.3-0.1,0.3s1.6,1.8,1.5,3.9c-1.1-0.3-1.9-0.3-1.9-0.3
			s1.5,0.5,1.8,1.2c-0.2,0.4-0.2,0.4-0.2,0.4s0.6-0.1,0.6,2.2c0,2.3-0.1,3.7-0.4,3.8s-0.8,0.3-0.8,0.3s0.4,0.5,0.4,1.6
			c-0.1,1.1-0.9,1.9-0.9,1.9s0.1,0.5-0.2,1.3c-0.5-0.1-0.5-0.1-0.5-0.1s-0.6,6.3-9.2,12.6c2.1-2.8,3.5-6.9,3.5-9.1
			c-0.2-0.9-0.9-1.4-0.9-1.4s-3.6,0.9-4.8,3.4c-1.2,2.5-5.2,6.1-7.5,7.1c-2.4,0.5-9.6,0-9.6,0s6-2,6.4-2.9c1.1,0,2.8-1.7,3.1-2.3
			c0.2-0.6,1-2.2,1-2.2l-0.7-2.8l2.6-2l1.2-1.8c0,0-5.7,3.8-8.9,4.3c1.7-2.1,1.7-2.1,1.7-2.1v-1l1.1-1l-0.3-1.1l0.4-0.7l-0.1-0.8
			l0.3-0.5l-0.2-1.2l1.5-2.8l-1.6,1.3c0,0-0.4-3.3-0.9-4.5s-2.6-2.6-2.9-3.4c-0.2-0.8-2.3-2.5-2.3-3.3c-0.6,1.4-0.2,2.7,1.3,3.8
			C77.2,396.4,78.7,397.7,78.5,401.2z"/>
		<path class="st0" d="M94,412.4c-1.1,1-2.1,3.3-3.1,5.7c-1,2.3-2.5,4.1-5.2,6.3s-5.8,3.3-8.1,4.1c-2.3,0.8-3.2,0.9-3.2,0.9
			s4.1-3,5.2-5.9c3.6-1.4,4.9-2.2,6.8-4.1C88.3,417.5,91.8,411.2,94,412.4z"/>
	</g>
	<path class="st0" d="M137.2,372.9h-16.4v-6.1h38.5v6.1h-16.4v52.2h-5.6L137.2,372.9L137.2,372.9z"/>
	<path class="st0" d="M171.8,366.8h6.2v25.9h31.6v-25.9h6.2v58.3h-6.2v-26.2H178v26.2h-6.2V366.8z"/>
	<path class="st0" d="M230.5,366.8h32v6h-27v19.9h24.2v6h-24.2v20.4h27.3v6h-32.3L230.5,366.8L230.5,366.8z"/>
	<path class="st0" d="M294.5,366.4h6.1l13.4,43.5l16.8-44.3h1.2l15.6,42.8l13.5-42h5.9l-18.5,59.3l0,0l-17.7-44.9l-18,46.2l0,0
		L294.5,366.4z"/>
	<path class="st0" d="M382,369.6l5.6-3.1v59.3H382V369.6z"/>
	<path class="st0" d="M418.9,372.6h-16.7v-6.2h39.2v6.2h-16.7v53.1H419L418.9,372.6L418.9,372.6z"/>
	<path class="st0" d="M485.6,419c-3,1.5-6.4,2.3-10.4,2.3c-6.5,0-12.1-2.8-16.2-7.3s-6.5-10.7-6.5-17.7v-0.2
		c0-6.9,2.4-13.1,6.5-17.6s9.7-7.2,16.2-7.2c4,0,7.3,0.9,10.3,2.3c2.9,1.4,5.3,3.3,7.7,5.6l3.8-4.2c-2.8-2.6-5.6-4.8-9-6.4
		c-3.5-1.6-7.6-2.6-12.8-2.6c-8.3,0-15.5,3.4-20.5,8.9c-5.1,5.5-8.1,13-8.1,21.3v0.2c0,8.4,3,15.9,8.1,21.3c5,5.4,12.1,8.7,20.3,8.7
		c5.2,0,9.3-1,12.9-2.8c3.5-1.7,6.5-4.2,9.4-7.1l-3.6-3.7C491.1,415.5,488.5,417.5,485.6,419z"/>
	<path class="st0" d="M516.3,366.4h6.3v26.4h32.2v-26.4h6.3v59.3l-6.3-2.5v-24.1h-32.2v24.6l-6.3,2.1V366.4z"/>
	<path class="st0" d="M576,366.4h32.6v6.1h-27.5v20.3h24.6v6.1h-24.6v20.8H609v6.1h-33V366.4z"/>
	<path class="st0" d="M622.3,366.4h21.4c6.1,0,11,2.2,14.2,5.9c2.4,2.9,3.8,7,3.8,11.7v0.2c0,9.8-5.7,15.6-13.5,17.3l15.3,24.2h-6.9
		l-14.5-23.1h-14.2v23.1h-5.6V366.4z M643.2,396.7c7.5,0,12.8-4.6,12.8-12.2v-0.2c0-7.3-4.7-11.7-12.7-11.7h-15.4v24.1
		C627.9,396.7,643.2,396.7,643.2,396.7z"/>
</g>
</svg>
