<?xml version="1.0" encoding="utf-8"?>
<!-- Generator: Adobe Illustrator 19.0.0, SVG Export Plug-In . SVG Version: 6.00 Build 0)  -->
<svg version="1.1" id="Layer_1" xmlns="http://www.w3.org/2000/svg" xmlns:xlink="http://www.w3.org/1999/xlink" x="0px" y="0px"
	 viewBox="19 357.3 649.6 78.7" style="enable-background:new 19 357.3 649.6 78.7;" xml:space="preserve">
<g>
	<g>
		<path d="M53.1,422.6c0,0,8.9-0.1,11.1-0.6c0,0-5.6,2.8-10.9,3.6l-2.3-1.2L53.1,422.6z"/>
		<path d="M40.2,421.2c-2.8,1-10.1,1-10.1,1c7.3,2.5,13.5,2.6,13.5,2.6c10.9,7.5,27.1,5.5,27.1,5.5V430c-1.8,0.3-5.4-0.4-5.4-0.4
			c-2.8-0.2-5.2-1.2-5.2-1.2h-0.9l-0.8-0.2l-1.1-0.4l-3.3-1.3l-4-2.5l1.7-1.5H52l1.2-0.9l0.5-0.1l1.2-1c0,0,0.6-0.9,1.8-1.3
			c3-2,7.8-6.7,7.8-6.7h-0.4c-2.6,2-8,4.4-8,4.4l-0.2,0.7l-0.5-0.4c-1.5,0.9-7.8,2.3-7.8,2.3l-0.5,0.4c-1.7,0.2-3.3-0.1-3.3-0.1
			C36,415,32.3,401,32.3,401s0.9,7,2.1,9C35,413.6,40.2,421.2,40.2,421.2z"/>
		<path d="M38.4,420.3l-2-2.3l-4.1-1.1c0,0,2.4,2.4,4.2,3.4C36.5,420.3,38.4,420.3,38.4,420.3z"/>
		<path d="M44.5,418.3l-1.7-1.4c0,0,2.1-8.1,3.5-11.7c0,6.3,0,7.4,0,7.4l-0.3,0.3l0.4,0.6l0.3,3.4L44.5,418.3z"/>
		<path d="M44.3,426.4l2.6,1.6c0,0,1.3,3.8,1.6,4.6c-1.7-2-4.9-5.6-4.9-5.6L44.3,426.4z"/>
		<path d="M45.4,383.2c0,0-1.3,2.4-2.4,3.4c-2.3,3.9-4.6,9.1-5.4,14.1c-0.7-0.9,1.6-9.7,4.5-14.4c-1.5-1.2-3.9,0.3-4.8,1.2
			c-1.9,1-4.3,3.6-5.5,5.7c-1.2,2-3,7.6-3,7.6v-1c0,0,2.5-12.3,12.8-16.5c0.8-2.3,3-5.8,3-5.8s-3.5,0.4-4,0.8
			c-0.7-1.5-0.9-2.5-0.9-2.5l1.2-1.4l-2.9,0.3l-1.4-1.4l1.8-1.7l-2.5,1.7c0,0-4.7-1.9-11.8-2.3c4.1-2.3,10.5-3.4,24.1-1.5
			c1.6,1.8,3,2.3,3,2.3v0.3c0,0,5.3,0,6.9,1c1.6,1,1.5,2.6,1.5,2.6s0.6,0.5,0.5,1.7c0.8,1.1,0.8,1.1,0.8,1.1v0.2l-1.8-0.8
			c0,0-1.6,0-3.5-0.5c-2.1,1.2-2.4,1.6-2.4,1.6S48.1,382.3,45.4,383.2z"/>
		<path d="M37,376.2h1.2l0.4,2c0,0-5.7,5.7-7,11.5C31.6,383.6,35.9,378,37,376.2z"/>
		<path d="M52.9,370.9c0,0-2.1-1.9-3.6-1.9c-0.2-1.7-2.4-3-7.5-4.3c3.4-0.8,9.8,1,13.8,3.7C55,370.9,54.8,370.9,52.9,370.9z"/>
		<path d="M54,364.5c0,0,13.8-5,26.7,0.9c-1.3,0.2-13.6-2.2-23,1C55.4,365.2,54,364.5,54,364.5z"/>
		<path d="M78.5,402.1c0,0-2.4,0.1-4.4,0.7c-1-0.4-1-0.4-1-0.4v0.8c0,0-4,0.3-6.5,5.5c-2,0.6-3.8,1.1-3.8,1.1s-0.3-0.9-1.8-1.3
			c0,0,0.3-0.5,0.6-0.5c-1.2-0.5-2.3-2.2-2.3-2.2s1.4,1,3.3,0.9c-1-0.6-1.5-1.7-1.5-1.7s1.6,0.6,2.6,0.7c-0.5-0.6-0.7-1.2-0.7-1.2
			s1.6,0.5,2.1,0.3c0.6-0.4,0.9-0.5,0.9-0.5l0.4,0.2l0.1-0.5c0,0,1.6-0.7,2-2c-0.1-4.6-0.2-6.5,1-8.6c-1.5-0.6-2.2-1.1-2.2-1.1
			l-0.4-0.9c0,0-0.8-0.4-1.8-0.5c0-0.6,0-0.6,0-0.6l-0.4,0.4l-1.6-0.2l-0.4-0.2l-0.5,0.2c0,0-2-0.2-2.8,0.1
			c-0.5,0.5-0.7,0.7-0.7,0.7s-1.4,0.7-1.4,1.1s0.2,1.7,0.2,1.7s-0.7-0.1-1.2-0.7c-0.7,1-0.4,2.1-0.4,2.1s-1.3-0.5-1.8-1.5
			c-0.1,1.9,1.6,4,2.7,4.7c-1.4,0.6-4.6-2.4-5.3-3.8c-0.9-0.1-1.5,0.5-1.5,0.5s0-1.7-1.3-3.3c-1.3-1.6-1.7-3.4-1.7-3.4
			s0.9,0.1,1.7-0.3s1.7-0.3,2.6-0.3c0.9,0.1,4.2-1.8,4.2-1.8H56c0,0,2.7-1.5,3.6-1.6c0.9,0,5.1,0.3,5.1,0.3l1.6-2.6
			c0,0-2.6,0.8-3.5,2.2c-1.6-0.1-1.8-0.1-1.8-0.1s0.4-1.8,1.3-2.6c0.9-0.9,3.8-3.6,5.2-4.1c1.4-0.5,2.6-1.1,3.5-1.5
			c0.9-0.4,2.8-1,5.6-1.8c1.5-0.4,3.3-2.9,4.1-3.6c0.8-0.8,4.2-5.3,5.3-7.3c2.2,4.4,3.3,7.1,3.1,8c-0.5,1.3-0.5,1.9-0.5,1.9l0.3,0.6
			l0.2,0.1c0,0,2.6,1.4,3,1.8c0.4,0.3,1,1,1,1l0.6,0.1L96,379l0.5-0.1l3.9,3.6l-0.2,0.7c0,0,1.4,1.3,1.6,1.9c-0.1,0.5,0,0.7,0,0.7
			l0.7,0.5l0.2,0.9l0.6,0.6v0.8c0,0,1.2,2.1,1.2,3.7c-1.8-2.6-4-5.8-6.2-5.2c-0.3,1.1-0.3,1.1-0.3,1.1l-1.1,0.5c0,0,2.8,1.6,4.6,4.7
			c-0.1,0.3-0.1,0.3-0.1,0.3s1.6,1.8,1.5,3.9c-1.1-0.3-1.9-0.3-1.9-0.3s1.5,0.5,1.8,1.2c-0.2,0.4-0.2,0.4-0.2,0.4s0.6-0.1,0.6,2.2
			c0,2.3-0.1,3.7-0.4,3.8s-0.8,0.3-0.8,0.3s0.4,0.5,0.4,1.6c-0.1,1.1-0.9,1.9-0.9,1.9s0.1,0.5-0.2,1.3c-0.5-0.1-0.5-0.1-0.5-0.1
			s-0.6,6.3-9.2,12.6c2.1-2.8,3.5-6.9,3.5-9.1c-0.2-0.9-0.9-1.4-0.9-1.4s-3.6,0.9-4.8,3.4c-1.2,2.5-5.2,6.1-7.5,7.1
			c-2.4,0.5-9.6,0-9.6,0s6-2,6.4-2.9c1.1,0,2.8-1.7,3.1-2.3c0.2-0.6,1-2.2,1-2.2l-0.7-2.8l2.6-2l1.2-1.8c0,0-5.7,3.8-8.9,4.3
			c1.7-2.1,1.7-2.1,1.7-2.1v-1l1.1-1l-0.3-1.1l0.4-0.7l-0.1-0.8l0.3-0.5l-0.2-1.2l1.5-2.8l-1.6,1.3c0,0-0.4-3.3-0.9-4.5
			c-0.5-1.2-2.6-2.6-2.9-3.4c-0.2-0.8-2.3-2.5-2.3-3.3c-0.6,1.4-0.2,2.7,1.3,3.8C77.2,397.3,78.7,398.6,78.5,402.1z"/>
		<path d="M94,413.3c-1.1,1-2.1,3.3-3.1,5.7c-1,2.3-2.5,4.1-5.2,6.3s-5.8,3.3-8.1,4.1c-2.3,0.8-3.2,0.9-3.2,0.9s4.1-3,5.2-5.9
			c3.6-1.4,4.9-2.2,6.8-4.1C88.3,418.4,91.8,412.1,94,413.3z"/>
	</g>
	<path d="M137.2,373.8h-16.4v-6.1h38.5v6.1h-16.4V426h-5.6L137.2,373.8L137.2,373.8z"/>
	<path d="M171.8,367.7h6.2v25.9h31.6v-25.9h6.2V426h-6.2v-26.2H178V426h-6.2V367.7z"/>
	<path d="M230.5,367.7h32v6h-27v19.9h24.2v6h-24.2V420h27.3v6h-32.3V367.7z"/>
	<path d="M294.5,367.3h6.1l13.4,43.5l16.8-44.3h1.2l15.6,42.8l13.5-42h5.9l-18.5,59.3l0,0l-17.7-44.9l-18,46.2l0,0L294.5,367.3z"/>
	<path d="M382,370.5l5.6-3.1v59.3H382V370.5z"/>
	<path d="M418.9,373.5h-16.7v-6.2h39.2v6.2h-16.7v53.1H419L418.9,373.5L418.9,373.5z"/>
	<path d="M485.6,419.9c-3,1.5-6.4,2.3-10.4,2.3c-6.5,0-12.1-2.8-16.2-7.3s-6.5-10.7-6.5-17.7V397c0-6.9,2.4-13.1,6.5-17.6
		s9.7-7.2,16.2-7.2c4,0,7.3,0.9,10.3,2.3c2.9,1.4,5.3,3.3,7.7,5.6l3.8-4.2c-2.8-2.6-5.6-4.8-9-6.4c-3.5-1.6-7.6-2.6-12.8-2.6
		c-8.3,0-15.5,3.4-20.5,8.9c-5.1,5.5-8.1,13-8.1,21.3v0.2c0,8.4,3,15.9,8.1,21.3c5,5.4,12.1,8.7,20.3,8.7c5.2,0,9.3-1,12.9-2.8
		c3.5-1.7,6.5-4.2,9.4-7.1l-3.6-3.7C491.1,416.4,488.5,418.4,485.6,419.9z"/>
	<path d="M516.3,367.3h6.3v26.4h32.2v-26.4h6.3v59.3l-6.3-2.5V400h-32.2v24.6l-6.3,2.1V367.3z"/>
	<path d="M576,367.3h32.6v6.1h-27.5v20.3h24.6v6.1h-24.6v20.8H609v6.1h-33V367.3z"/>
	<path d="M622.3,367.3h21.4c6.1,0,11,2.2,14.2,5.9c2.4,2.9,3.8,7,3.8,11.7v0.2c0,9.8-5.7,15.6-13.5,17.3l15.3,24.2h-6.9l-14.5-23.1
		h-14.2v23.1h-5.6V367.3z M643.2,397.6c7.5,0,12.8-4.6,12.8-12.2v-0.2c0-7.3-4.7-11.7-12.7-11.7h-15.4v24.1
		C627.9,397.6,643.2,397.6,643.2,397.6z"/>
</g>
</svg>
