<?xml version="1.0" encoding="utf-8"?>
<!-- Generator: Adobe Illustrator 19.0.0, SVG Export Plug-In . SVG Version: 6.00 Build 0)  -->
<svg version="1.1" id="Layer_1" xmlns="http://www.w3.org/2000/svg" xmlns:xlink="http://www.w3.org/1999/xlink" x="0px" y="0px"
	 viewBox="-155 359 300 75" style="enable-background:new -155 359 300 75;" xml:space="preserve">
<style type="text/css">
	.st0{fill:#040B13;}
</style>
<polygon class="st0" points="-36.8,387 -38.4,387 -47.4,395.9 -47.4,395.9 -48.2,396.7 -38.8,406 -37.3,406 -46.6,396.7 "/>
<polygon class="st0" points="-111.8,387 -113.4,387 -122.4,395.9 -122.4,395.9 -123.2,396.7 -113.8,406 -112.3,406 -121.6,396.7 "/>
<polygon class="st0" points="26.8,387 28.4,387 37.4,395.9 37.4,395.9 38.2,396.7 28.8,406 27.3,406 36.6,396.7 "/>
<polygon class="st0" points="101.8,387 103.4,387 112.4,395.9 112.4,395.9 113.2,396.7 103.8,406 102.3,406 111.6,396.7 "/>
</svg>
